<?xml version="1.0" standalone="no"?>
<!DOCTYPE svg PUBLIC "-//W3C//DTD SVG 20010904//EN"
 "http://www.w3.org/TR/2001/REC-SVG-20010904/DTD/svg10.dtd">
<svg version="1.0" xmlns="http://www.w3.org/2000/svg"
 width="512.000000pt" height="512.000000pt" viewBox="0 0 512.000000 512.000000"
 preserveAspectRatio="xMidYMid meet">

<g transform="translate(0.000000,512.000000) scale(0.100000,-0.100000)"
fill="#000000" stroke="none">
<path d="M1881 4059 c-143 -24 -229 -43 -240 -53 -10 -9 -34 -16 -53 -16 -32
0 -59 -21 -275 -214 l-240 -213 -76 -17 c-89 -20 -107 -37 -108 -106 l0 -45
-230 -205 c-126 -112 -229 -207 -229 -211 0 -3 8 -13 18 -22 16 -14 33 -12
207 24 105 21 200 41 213 44 l22 5 0 -178 c0 -99 3 -227 7 -285 l6 -107 34 0
33 0 0 293 0 293 263 53 c144 29 270 55 279 57 12 4 19 -2 22 -18 3 -13 25
-126 50 -252 25 -125 47 -231 50 -234 3 -3 32 5 63 17 297 115 695 170 1023
142 74 -7 142 -14 150 -16 9 -3 45 24 86 63 131 126 261 175 462 176 67 1 122
2 122 3 0 11 -173 630 -178 639 -5 7 -288 -39 -912 -147 -498 -87 -916 -159
-930 -161 -22 -3 -25 2 -35 53 l-12 56 56 45 c157 127 394 238 686 323 163 47
404 97 555 114 52 7 111 14 130 18 24 4 -85 22 -350 59 -212 29 -398 54 -415
57 -16 2 -131 -13 -254 -34z"/>
<path d="M3310 3924 c0 -11 32 -149 36 -153 2 -2 47 24 99 59 52 35 94 65 91
67 -4 5 -182 33 -208 33 -10 0 -18 -2 -18 -6z"/>
<path d="M3500 2985 c-27 -9 -34 -17 -33 -34 2 -13 -3 -21 -12 -21 -9 0 -15
-9 -15 -24 0 -19 -7 -26 -30 -31 -40 -9 -48 -36 -36 -127 5 -33 11 -48 21 -48
8 0 15 -3 16 -7 0 -5 2 -18 3 -30 2 -13 -3 -23 -9 -23 -8 0 -14 -36 -19 -111
-4 -61 -10 -118 -13 -127 -5 -14 -3 -15 7 -5 11 10 17 10 30 -2 15 -14 17 -11
19 32 1 47 10 68 18 46 3 -7 13 -13 22 -13 13 0 18 -8 19 -30 0 -16 -3 -32 -7
-35 -5 -2 -2 -30 6 -61 11 -43 12 -58 3 -64 -8 -5 -6 -9 6 -14 11 -4 20 -2 22
3 2 6 21 11 43 11 35 0 39 2 39 26 0 28 16 47 41 52 12 2 15 -4 11 -23 -2 -14
0 -25 5 -25 5 0 10 13 10 29 0 26 -4 30 -31 33 -23 2 -31 8 -31 23 1 34 15 89
21 82 4 -3 19 0 34 8 15 8 30 12 33 8 9 -8 107 29 108 41 1 6 1 15 0 20 -1 5
7 6 19 3 11 -3 18 -2 15 3 -3 4 4 10 15 13 11 3 18 1 14 -4 -8 -14 16 -11 31
5 27 26 -113 232 -242 357 -74 73 -100 83 -153 64z m40 -515 c0 -5 -4 -10 -10
-10 -5 0 -10 5 -10 10 0 6 5 10 10 10 6 0 10 -4 10 -10z"/>
<path d="M3844 2425 c-4 -8 -17 -15 -30 -15 -29 0 -58 -38 -42 -57 12 -15 -8
-47 -23 -37 -5 3 -14 -6 -20 -19 -9 -20 -18 -24 -47 -23 -21 1 -43 5 -49 9 -8
5 -13 3 -13 -5 0 -12 44 -37 73 -42 6 -1 17 -5 23 -9 7 -4 24 5 38 20 21 20
29 24 35 14 6 -10 10 -9 14 4 4 9 3 13 -3 10 -6 -3 -10 -2 -10 4 0 5 10 13 21
16 12 4 18 10 13 14 -8 6 -9 18 -5 63 0 9 11 20 24 24 34 11 51 44 22 44 -9 0
-18 -7 -21 -15z m-89 -145 c-3 -5 -10 -10 -16 -10 -5 0 -9 5 -9 10 0 6 7 10
16 10 8 0 12 -4 9 -10z"/>
<path d="M3400 2350 c-6 -11 -17 -20 -24 -20 -9 0 -22 -28 -35 -70 -12 -38
-24 -76 -27 -84 -6 -16 50 -51 66 -41 10 6 7 48 -6 94 -6 21 -5 22 14 12 14
-7 23 -8 27 -1 3 6 18 7 32 4 19 -5 24 -3 21 7 -3 8 -22 15 -48 17 -55 4 -59
7 -32 32 12 12 22 28 22 36 0 10 6 14 15 10 9 -3 15 0 15 9 0 22 -28 18 -40
-5z"/>
<path d="M3845 2300 c-4 -6 -4 -10 -1 -10 2 0 11 -3 20 -6 9 -3 16 -2 16 4 0
14 -28 23 -35 12z"/>
<path d="M917 2143 c-10 -15 -87 -260 -87 -274 0 -11 27 -19 107 -32 58 -10
108 -15 111 -12 11 11 -95 320 -111 323 -8 2 -17 -1 -20 -5z"/>
<path d="M3430 2072 c0 -6 -14 -15 -31 -21 -17 -6 -38 -20 -48 -33 -13 -16
-28 -22 -55 -21 -20 1 -36 -3 -36 -8 0 -10 65 -23 78 -15 12 7 124 -33 134
-48 4 -6 4 -13 0 -16 -4 -3 -12 -15 -19 -27 -10 -18 -9 -25 6 -45 10 -13 21
-31 24 -41 10 -27 36 -32 52 -11 13 18 16 17 58 -25 25 -24 48 -43 51 -42 3 0
13 -2 22 -6 12 -4 26 4 46 25 15 18 28 36 28 41 0 8 -36 24 -51 23 -3 -1 -12
10 -19 23 -9 17 -10 31 -2 53 11 33 7 43 -14 35 -8 -3 -14 -16 -14 -29 0 -18
-5 -24 -23 -24 -22 0 -23 2 -16 58 5 41 3 63 -7 79 -8 12 -14 29 -14 38 0 8
-5 15 -11 15 -5 0 -7 5 -3 12 4 6 3 8 -4 5 -12 -8 -7 -37 15 -85 8 -19 13 -35
11 -36 -1 -1 -20 -15 -40 -30 -36 -27 -37 -27 -47 -7 -11 20 2 40 14 21 3 -5
10 -10 16 -10 12 0 12 53 0 66 -5 5 -11 25 -13 44 -2 29 -7 35 -28 36 -14 1
-33 5 -42 9 -11 4 -18 3 -18 -3z m80 -31 c0 -12 -20 -25 -27 -18 -7 7 6 27 18
27 5 0 9 -4 9 -9z m-100 -21 c0 -5 -5 -10 -11 -10 -5 0 -7 5 -4 10 3 6 8 10
11 10 2 0 4 -4 4 -10z m90 -18 c0 -10 -22 -32 -32 -32 -4 0 -8 9 -8 20 0 13 7
20 20 20 11 0 20 -4 20 -8z m130 -194 c0 -13 -23 -5 -28 10 -2 7 2 10 12 6 9
-3 16 -11 16 -16z m90 -38 c0 -5 -4 -10 -9 -10 -6 0 -13 5 -16 10 -3 6 1 10 9
10 9 0 16 -4 16 -10z"/>
<path d="M3225 2000 c-3 -6 1 -7 9 -4 18 7 21 14 7 14 -6 0 -13 -4 -16 -10z"/>
<path d="M3743 1958 c-37 -40 -33 -58 12 -58 24 0 35 -5 40 -19 6 -20 42 -35
50 -21 9 15 -23 80 -39 80 -10 0 -16 9 -16 25 0 33 -10 32 -47 -7z"/>
<path d="M3825 1950 c4 -6 11 -8 16 -5 14 9 11 15 -7 15 -8 0 -12 -5 -9 -10z"/>
<path d="M1516 1698 c20 -85 84 -243 133 -326 153 -263 395 -464 679 -566 264
-94 591 -94 854 0 300 108 550 322 699 599 23 42 40 77 38 79 -2 1 -19 8 -36
15 -18 8 -33 19 -33 26 0 7 -7 15 -15 19 -10 3 -15 19 -15 48 0 47 -17 42 -20
-7 -4 -58 -1 -67 19 -60 14 4 20 -1 24 -22 4 -21 -1 -35 -20 -55 -27 -28 -122
-65 -182 -70 -48 -4 -54 -28 -7 -28 20 0 36 -4 36 -10 0 -13 -95 -87 -123 -96
-78 -23 -157 -75 -157 -102 0 -20 -48 -52 -87 -58 -23 -3 -44 -12 -47 -19 -2
-7 -31 -21 -63 -31 -79 -26 -217 -22 -177 4 11 7 21 39 31 100 3 22 15 38 34
49 37 22 62 75 54 113 -5 22 -1 38 16 61 18 26 19 33 8 40 -8 5 -18 9 -22 9
-4 0 -7 8 -5 17 2 14 -13 20 -86 32 -84 15 -89 17 -107 51 -10 19 -18 51 -19
70 0 19 -3 45 -6 57 -6 21 -7 21 -62 -14 -66 -43 -152 -82 -246 -113 -43 -14
-64 -25 -56 -30 24 -15 2 -57 -44 -84 -25 -15 -48 -38 -56 -56 -19 -46 -65
-74 -117 -71 -34 2 -44 -1 -50 -16 -9 -27 -34 -53 -44 -47 -5 3 -16 -2 -25
-11 -9 -9 -22 -14 -29 -11 -8 3 -16 -2 -19 -11 -4 -10 -15 -14 -36 -11 -17 3
-30 1 -30 -4 0 -4 -7 -8 -17 -8 -9 0 -13 -3 -10 -7 4 -3 -2 -12 -13 -20 -11
-8 -17 -20 -14 -28 4 -8 2 -15 -2 -15 -5 0 -15 -4 -23 -9 -17 -11 3 -51 26
-51 9 0 14 -3 10 -6 -14 -14 -76 7 -91 31 -19 29 -29 102 -14 107 6 2 12 23
14 46 2 24 10 57 18 75 11 26 35 100 61 193 2 6 -31 21 -78 33 -142 38 -326
136 -428 228 l-37 34 14 -63z m1934 -608 c0 -13 -118 -72 -138 -68 -14 3 -14
4 1 18 39 35 49 41 78 45 17 2 34 6 37 9 9 9 22 7 22 -4z"/>
<path d="M3646 1633 c-3 -10 -8 -36 -11 -58 -3 -22 -9 -56 -14 -75 -5 -19 -10
-39 -11 -45 -1 -5 -2 -21 -1 -35 l2 -25 14 25 c8 14 14 42 15 63 0 21 4 46 9
55 12 24 20 112 10 112 -4 0 -10 -8 -13 -17z"/>
<path d="M240 695 c0 -13 23 -15 145 -15 122 0 145 2 145 15 0 13 -23 15 -145
15 -122 0 -145 -2 -145 -15z"/>
<path d="M700 695 c0 -13 211 -15 1840 -15 1629 0 1840 2 1840 15 0 13 -211
15 -1840 15 -1629 0 -1840 -2 -1840 -15z"/>
<path d="M4480 695 c0 -12 16 -15 80 -15 64 0 80 3 80 15 0 12 -16 15 -80 15
-64 0 -80 -3 -80 -15z"/>
<path d="M4740 695 c0 -13 12 -15 78 -13 43 2 77 7 77 13 0 6 -34 11 -77 13
-66 2 -78 0 -78 -13z"/>
</g>
</svg>
